<svg width="64" height="64" viewBox="0 0 64 64" fill="none" xmlns="http://www.w3.org/2000/svg">
<rect width="64" height="64" rx="6" fill="black"/>
<path d="M19.76 43.736C21.776 43.736 23.328 43.304 24.416 42.44C25.504 41.544 26.048 40.248 26.048 38.552C26.048 37.144 25.664 35.96 24.896 35C24.16 34.04 22.944 33.304 21.248 32.792L17.36 31.64C14.928 30.904 13.136 29.8 11.984 28.328C10.832 26.824 10.256 24.984 10.256 22.808C10.256 21.144 10.576 19.64 11.216 18.296C11.888 16.952 12.944 15.88 14.384 15.08C15.856 14.28 17.776 13.88 20.144 13.88C21.584 13.88 23.072 14.056 24.608 14.408C26.144 14.728 27.696 15.256 29.264 15.992L27.92 19.592C26.384 18.92 24.992 18.44 23.744 18.152C22.528 17.832 21.36 17.672 20.24 17.672C18.416 17.672 16.992 18.056 15.968 18.824C14.976 19.56 14.48 20.792 14.48 22.52C14.48 23.768 14.816 24.824 15.488 25.688C16.16 26.52 17.36 27.208 19.088 27.752L22.976 28.904C27.84 30.344 30.272 33.448 30.272 38.216C30.272 40.968 29.44 43.208 27.776 44.936C26.112 46.632 23.44 47.48 19.76 47.48C18.256 47.48 16.656 47.304 14.96 46.952C13.296 46.568 11.568 45.976 9.776 45.176L11.072 41.624C12.768 42.392 14.288 42.936 15.632 43.256C17.008 43.576 18.384 43.736 19.76 43.736Z" fill="white"/>
<path d="M53.1613 47H34.5373V43.832C34.5373 41.432 34.8253 39.416 35.4013 37.784C36.0093 36.152 36.8093 34.808 37.8013 33.752C38.8253 32.664 39.9613 31.8 41.2093 31.16L44.3293 29.576C45.8013 28.808 46.9693 28.008 47.8333 27.176C48.7293 26.344 49.1773 25.144 49.1773 23.576V22.76C49.1773 20.968 48.6653 19.672 47.6413 18.872C46.6493 18.072 45.1773 17.672 43.2253 17.672C42.1373 17.672 40.9853 17.816 39.7693 18.104C38.5533 18.36 37.2093 18.808 35.7373 19.448L34.3933 15.944C35.9933 15.208 37.5293 14.68 39.0013 14.36C40.5053 14.04 41.9453 13.88 43.3213 13.88C46.8733 13.88 49.4173 14.712 50.9533 16.376C52.4893 18.008 53.2573 20.136 53.2573 22.76V23.576C53.2573 25.304 52.9213 26.744 52.2493 27.896C51.6093 29.048 50.7453 30.024 49.6573 30.824C48.6013 31.592 47.4653 32.28 46.2493 32.888L43.1293 34.52C41.6253 35.32 40.5053 36.424 39.7693 37.832C39.0653 39.24 38.6813 41.032 38.6172 43.208H53.1613V47Z" fill="#3347FF"/>
</svg>
