<svg width="32" height="32" viewBox="0 0 32 32" fill="none" xmlns="http://www.w3.org/2000/svg">
<rect width="32" height="32" rx="6" fill="black"/>
<path d="M9.88 22.368C10.888 22.368 11.664 22.152 12.208 21.72C12.752 21.272 13.024 20.624 13.024 19.776C13.024 19.072 12.832 18.48 12.448 18C12.08 17.52 11.472 17.152 10.624 16.896L8.68 16.32C7.464 15.952 6.568 15.4 5.992 14.664C5.416 13.912 5.128 12.992 5.128 11.904C5.128 11.072 5.288 10.32 5.608 9.648C5.944 8.976 6.472 8.44 7.192 8.04C7.928 7.64 8.888 7.44 10.072 7.44C10.792 7.44 11.536 7.528 12.304 7.704C13.072 7.864 13.848 8.128 14.632 8.496L13.96 10.296C13.192 9.96 12.496 9.72 11.872 9.576C11.264 9.416 10.68 9.336 10.12 9.336C9.208 9.336 8.496 9.528 7.984 9.912C7.488 10.28 7.24 10.896 7.24 11.76C7.24 12.384 7.408 12.912 7.744 13.344C8.08 13.76 8.68 14.104 9.544 14.376L11.488 14.952C13.92 15.672 15.136 17.224 15.136 19.608C15.136 20.984 14.72 22.104 13.888 22.968C13.056 23.816 11.72 24.24 9.88 24.24C9.128 24.24 8.328 24.152 7.48 23.976C6.648 23.784 5.784 23.488 4.888 23.088L5.536 21.312C6.384 21.696 7.144 21.968 7.816 22.128C8.504 22.288 9.192 22.368 9.88 22.368Z" fill="white"/>
<path d="M26.5806 24H17.2686V22.416C17.2686 21.216 17.4126 20.208 17.7006 19.392C18.0046 18.576 18.4046 17.904 18.9006 17.376C19.4126 16.832 19.9806 16.4 20.6046 16.08L22.1646 15.288C22.9006 14.904 23.4846 14.504 23.9166 14.088C24.3646 13.672 24.5886 13.072 24.5886 12.288V11.88C24.5886 10.984 24.3326 10.336 23.8206 9.936C23.3246 9.536 22.5886 9.336 21.6126 9.336C21.0686 9.336 20.4926 9.408 19.8846 9.552C19.2766 9.68 18.6046 9.904 17.8686 10.224L17.1966 8.472C17.9966 8.104 18.7646 7.84 19.5006 7.68C20.2526 7.52 20.9726 7.44 21.6606 7.44C23.4366 7.44 24.7086 7.856 25.4766 8.688C26.2446 9.504 26.6286 10.568 26.6286 11.88V12.288C26.6286 13.152 26.4606 13.872 26.1246 14.448C25.8046 15.024 25.3726 15.512 24.8286 15.912C24.3006 16.296 23.7326 16.64 23.1246 16.944L21.5646 17.76C20.8126 18.16 20.2526 18.712 19.8846 19.416C19.5326 20.12 19.3406 21.016 19.3086 22.104H26.5806V24Z" fill="#3347FF"/>
</svg>
